<?xml version="1.0" encoding="UTF-8"?>
<svg id="Layer_1" xmlns="http://www.w3.org/2000/svg" version="1.1" viewBox="0 0 1445.79 633.87">
  <!-- Generator: Adobe Illustrator 29.0.0, SVG Export Plug-In . SVG Version: 2.1.0 Build 186)  -->
  <defs>
    <style>
      .st0 {
        fill: #ed3237;
      }

      .st1 {
        fill: #4c4c4c;
      }
    </style>
  </defs>
  <g>
    <g>
      <path class="st1" d="M197.59,371.28c-4.98-2.82-10.83-4.23-17.55-4.23h-42.96v110.94h15.57v-43.02h27.39c6.71,0,12.57-1.41,17.55-4.2,4.98-2.81,8.87-6.75,11.64-11.82,2.76-5.09,4.15-11.04,4.15-17.87s-1.39-12.84-4.15-17.92c-2.77-5.09-6.67-9.05-11.64-11.87ZM192.82,414.88c-3.08,3.52-7.17,5.27-12.24,5.27h-27.92v-38.3h27.92c5.08,0,9.16,1.75,12.24,5.25,3.08,3.52,4.62,8.17,4.62,13.96s-1.54,10.31-4.62,13.82Z"/>
      <polygon class="st1" points="240.4 367.05 232.84 367.05 232.84 477.98 240.4 477.98 248.41 477.98 304.1 477.98 304.1 463.18 248.41 463.18 248.41 430.29 295.71 430.29 295.71 415.5 248.41 415.5 248.41 381.85 304.1 381.85 304.1 367.05 248.41 367.05 240.4 367.05"/>
      <polygon class="st1" points="314.02 381.85 345.38 381.85 345.38 477.98 360.95 477.98 360.95 381.85 392.3 381.85 392.3 367.05 314.02 367.05 314.02 381.85"/>
      <path class="st1" d="M468.48,427.06c4.82-2.68,8.56-6.42,11.27-11.22,2.69-4.8,4.04-10.41,4.04-16.83s-1.33-12.08-4.01-16.85c-2.68-4.78-6.42-8.51-11.25-11.19-4.83-2.66-10.48-4.01-16.95-4.01h-44.03v111.02h15.57v-46.91h23.17l23.68,46.91h18.47l-25.57-48.54c1.98-.62,3.86-1.41,5.61-2.38ZM423.13,381.77h29.08c4.52,0,8.16,1.57,10.91,4.74,2.74,3.15,4.12,7.31,4.12,12.5s-1.38,9.37-4.12,12.52c-2.76,3.16-6.39,4.74-10.91,4.74h-29.08v-34.49Z"/>
      <path class="st1" d="M577.21,385.24c-3.23-6.13-7.77-10.88-13.62-14.27-5.84-3.37-12.68-5.08-20.51-5.08s-14.68,1.7-20.53,5.08c-5.85,3.39-10.39,8.14-13.62,14.27-3.23,6.13-4.85,13.31-4.85,21.55v31.44c0,8.19,1.62,15.36,4.85,21.52,3.23,6.15,7.77,10.91,13.62,14.3,5.85,3.39,12.7,5.08,20.53,5.08s14.68-1.69,20.51-5.08c5.85-3.39,10.4-8.16,13.62-14.3,3.23-6.16,4.85-13.33,4.85-21.52v-31.44c0-8.24-1.62-15.42-4.85-21.55ZM566.12,438.77c0,7.52-2.11,13.57-6.29,18.16-4.2,4.57-9.79,6.86-16.75,6.86s-12.49-2.29-16.72-6.86c-4.22-4.59-6.32-10.64-6.32-18.16v-32.51c0-7.57,2.11-13.64,6.32-18.19,4.23-4.54,9.79-6.83,16.72-6.83s12.55,2.29,16.75,6.83c4.18,4.56,6.29,10.62,6.29,18.19v32.51Z"/>
    </g>
    <g>
      <polygon class="st0" points="696.36 440.3 663.78 367.05 649.2 367.05 649.2 477.98 664.39 477.98 664.39 403.01 690.94 462.58 701.77 462.58 728.34 401.52 728.34 477.98 743.52 477.98 743.52 367.05 728.94 367.05 696.36 440.3"/>
      <rect class="st0" x="770.99" y="367.05" width="15.57" height="110.94"/>
      <polygon class="st0" points="852.57 421.32 885.73 367.05 868.27 367.05 844.37 407.81 820.2 367.05 802.72 367.05 836.26 421.39 801.81 477.98 819.28 477.98 844.46 434.91 869.94 477.98 887.42 477.98 852.57 421.32"/>
    </g>
    <path class="st0" d="M528.44,226.85c-5.01-7.23-11.48-10.83-19.43-10.83-7.12,0-13.56,2.89-19.35,8.66-5.77,5.79-11.45,13.98-16.99,24.58-4.46,8.56-8.16,14.43-11.11,17.63-2.95,3.19-6.6,4.78-10.93,4.78h-5.61c-6.86,0-12.47-1.38-16.8-4.15-1.69-16.15-7.09-27.99-16.18-35.51-9.1-7.52-20.38-11.3-33.89-11.3-8.55,0-17.64.97-27.28,2.9l55.3-55.31-8.5-13.56h-1.62l-65.43,70.67,6.7,15.18c12.76-1.8,24.21-2.71,34.33-2.71,12.29,0,21.88,2.35,28.74,7.05,6.88,4.69,11.16,13.61,12.84,26.74h-93.44c-6.99,0-12.54-1.38-16.64-4.15-1.2-10.61-4.04-27.65-8.48-51.15l-16.28,3.62c4.22,22.52,7.12,39.76,8.68,51.68-13.14-.24-23.72-1.74-31.8-4.51l5.42-41.21h-16.27l-5.97,45.71c-10.61-.11-19.64-1.8-27.1-5.06v-40.65h-16.09v71.74c-7.23,2.17-14.71,3.26-22.41,3.26-12.91,0-22.12-2.84-27.67-8.5-5.55-5.66-8.3-14.04-8.3-25.12,0-7.83,1.14-16.09,3.42-24.76l-.89-.91-13.02,2.17c-3.24,10.01-4.88,19.33-4.88,28.01,0,14.71,4.04,26.27,12.11,34.7,8.08,8.43,19.88,12.65,35.43,12.65,13.61,0,27.7-3.79,42.29-11.38v-26.38c9.15,5.79,19.93,8.68,32.34,8.68l7.05-10.48c11.81,6.99,25.67,10.48,41.58,10.48l6.15-9.76c6.75,6.5,13.61,9.76,20.6,9.76h99.76l5.06-9.21c6.39,6.15,13.2,9.21,20.43,9.21h4.88c5.9,0,10.77-1.17,14.63-3.52,3.86-2.35,7.65-6.36,11.38-12.02l41.22,18.79,12.65-12.11c4.57-8.32,6.86-17.24,6.86-26.76,0-11.21-2.5-20.42-7.49-27.65ZM516.6,276.02l-33.44-15.37,1.44-2.53c4.22-8.19,7.9-14.19,11.03-17.98,3.13-3.79,6.5-5.69,10.12-5.69,4.46,0,8.04,2.08,10.75,6.24,2.71,4.15,4.07,9.79,4.07,16.9,0,6.26-1.33,12.41-3.97,18.44Z"/>
    <g>
      <path class="st1" d="M655.85,223.51c-5.61-6.57-12.26-9.84-19.98-9.84s-15.67,4.64-22.77,13.91c-7.12,9.28-12.23,21.02-15.36,35.24,12.05,16.27,31.2,25.61,57.47,28.02-1.2,7.7-3.83,13.07-7.86,16.09-4.04,3-9.73,4.51-17.08,4.51-10.01,0-19.17-1.44-27.47-4.33l-1.26,1.09,2.89,15.71c7.48,3.5,15.31,5.24,23.5,5.24,29.03,0,43.56-17.82,43.56-53.5,0-9.99-1.2-19.54-3.62-28.64-2.42-9.1-6.42-16.93-12.02-23.5ZM613.83,256.85c2.29-7.1,5.27-12.94,8.94-17.53,3.68-4.57,7.26-6.86,10.75-6.86,4.7,0,8.77,2.08,12.21,6.23,3.44,4.17,5.94,9.16,7.49,15,1.57,5.85,2.53,12.39,2.9,19.62-18.57-1.33-32.66-6.81-42.29-16.46Z"/>
      <polygon class="st1" points="784.8 194.5 795.47 207.15 810.47 194.68 798.72 180.77 783.72 193.24 773.06 180.59 758.04 193.06 769.98 206.97 784.8 194.5"/>
      <polygon class="st1" points="831.07 316.5 843.18 330.96 858.18 318.49 846.07 304.03 831.07 316.5"/>
      <path class="st1" d="M843.36,217.64v54.03h-31.62c-7.12,0-12.78-1.44-16.99-4.33v-43.74h-16.44v48.07h-32.9c-7.7,0-13.91-1.31-18.62-3.97v-44.09h-16.09v65.6c0,7.96-1.33,13.65-3.97,17.09-2.64,3.42-6.68,5.14-12.11,5.14-5.9,0-11.21-.71-15.89-2.16l-1.26,1.07,2.89,15.73c4.33,2.04,8.85,3.06,13.56,3.06,21.92,0,32.89-14.34,32.89-43.01v-3.62c6.63,5.06,12.78,7.59,18.44,7.59h37.23l6.68-10.85c7.48,7.23,14.76,10.85,21.88,10.85h48.62v-72.47h-16.27Z"/>
    </g>
  </g>
  <path class="st0" d="M1273.2,229.72l-72.04-72.04-121.24,121.23c-18.75,18.75-29.08,43.68-29.08,70.19s10.33,51.42,29.08,70.17c18.73,18.73,43.66,29.06,70.17,29.06s51.44-10.33,70.17-29.06c38.69-38.69,38.69-101.66,0-140.36l-34.52-34.52,21.38-21.4,34.54,34.54c24.45,24.45,37.94,56.99,37.94,91.57s-13.48,67.1-37.94,91.57c-24.45,24.45-56.98,37.92-91.57,37.92s-67.12-13.47-91.57-37.92c-50.5-50.5-50.5-132.65,0-183.15l121.24-121.24-29.88-29.88-123.34,123.32c-68.11,68.11-68.11,178.56,0,246.67,34.05,34.05,78.7,51.07,123.32,51.07s89.27-17.02,123.34-51.07c34.07-34.05,51.09-78.7,51.09-123.34s-17.02-89.29-51.09-123.34ZM1214.21,381.81c-15.05,22.88-38.58,37.41-64.73,36.84-26.13-.58-49-16.1-63.04-39.63,13.38,5.46,35.15,12.42,62.76,13.17,28.5.75,51.21-5.46,65.01-10.38Z"/>
</svg>